<svg enable-background="new 0 0 338.6 174" version="1.1" viewBox="0 0 338.6 174" xml:space="preserve" xmlns="http://www.w3.org/2000/svg">
<style type="text/css">
	.st0{fill:#F095B5;}
	.st1{fill:#FFFFFF;}
	.st2{fill:#E4C302;}
	.st3{fill:#80C294;}
</style>

	<path class="st0" d="m336.7 111.1-295 62.7c-3.4 0.7-7.2-1.1-8.4-4.1l-30.7-73.9c-1.2-3 5.4-17.4 8.8-18.1l290.2-51.3c3.4-0.7 4.6 1.1 5.9 4.1l29.4 68.5c1.3 3 3.2 11.4-0.2 12.1"/>
	<path class="st1" d="m332.6 103.8-289.4 61.5c-3.4 0.7-7.2-1.1-8.4-4.1l-31.2-74.9c-1.2-3 0.5-6 3.9-6.7l289.5-61.5c3.4-0.7 7.2 1.1 8.4 4.1l31.1 74.9c1.3 3-0.5 6-3.9 6.7"/>
	<path d="m41.7 166.7c-3.5 0-6.9-2-8.1-5.1l-31.1-74.8c-0.7-1.7-0.7-3.6 0.2-5.1 0.9-1.7 2.6-2.9 4.7-3.4l289.5-61.5c4-0.8 8.4 1.3 9.9 4.9l31.1 74.9c0.7 1.7 0.7 3.6-0.2 5.1-0.9 1.7-2.6 2.9-4.7 3.4l-289.6 61.5c-0.5 0.1-1.1 0.1-1.7 0.1m256.8-147.5c-0.4 0-0.8 0-1.2 0.1l-289.5 61.5c-1.3 0.3-2.4 1-2.9 2-0.5 0.9-0.5 1.9-0.1 2.9l31.1 74.9c1 2.4 4.2 3.9 7 3.3l289.5-61.5c1.3-0.3 2.4-1 2.9-2 0.5-0.9 0.5-1.9 0.1-2.9l-31.1-74.9c-0.9-1.9-3.3-3.4-5.8-3.4"/>
	<path d="m80.2 133.6c-0.7 0.7-2.2 1.3-4 1.7-3.6 0.8-6.4-0.4-9.5-3l-3.8-3.3-0.7 0.1c-1 0.2-2.1 0.4-3.1 0.5l3.3 7.9-8.9 1.9-11.4-27.4 13.7-2.9c7.9-1.7 13.7 0.9 16.2 6.9 1.6 3.9 1.2 7-1.3 9.4l2.2 1.6c1.2 0.9 2.1 1 3 0.8 0.5-0.1 1-0.3 1.2-0.4l3.1 6.2zm-23.7-10.4c1-0.1 2-0.3 2.9-0.5 3.5-0.7 4.9-2.1 4.1-4.3-0.8-2-2.8-2.7-5.6-2.1l-3.9 0.8 2.5 6.1z"/>
	<path d="m105 125.9c-1.8 2.3-4.4 4.2-10.1 5.4-7.2 1.5-13.5-0.8-16.4-7.7-2.8-6.7 0-12.5 8.4-14.3 6.4-1.4 10.7 0.7 12.3 4.4 2 4.6-1.3 8-10.2 10.2 1.3 1.1 2.8 1 4.8 0.6 2.1-0.4 4.1-1.4 5.6-3l5.6 4.4zm-18.5-6.3c3.3-0.8 5.5-1.7 4.8-3.3-0.4-0.9-1.4-1.1-2.6-0.9-2 0.5-2.8 1.9-2.2 4.2"/>
	<path d="m129.8 112c3 7.2 0.1 12-5.5 13.2-3 0.6-5.7 0.3-8.1-1.4l0.7 2.2-7.8 1.7-12.5-30 8.8-1.9 4.7 11.3c0.9-1.9 2.7-3.1 5.3-3.7 5.9-1.3 11.6 1.7 14.4 8.6m-14.5-1.4c-1.7 0.4-2.6 1.4-2.6 2.9l1.7 4.1c1 1.4 2.7 1.9 4.5 1.5 2.3-0.5 3.2-2.2 2.1-5-1.1-2.9-3.3-4-5.7-3.5"/>
	<path d="m132.3 111.7c-2.7-6.5 0.5-12.1 8.4-13.8s14.3 1.3 17.1 8.1c2.7 6.5-0.5 12.1-8.4 13.8-7.8 1.7-14.3-1.3-17.1-8.1m16.8-3.6c-1.1-2.6-3.2-3.9-5.7-3.4-2.6 0.6-3.4 2.4-2.3 5.1s3.2 3.9 5.8 3.4c2.5-0.6 3.3-2.4 2.2-5.1"/>
	<path d="m160 105.9c-2.7-6.5 0.5-12.1 8.4-13.8s14.3 1.3 17.1 8.1c2.7 6.5-0.5 12.1-8.4 13.7-7.8 1.7-14.3-1.3-17.1-8m16.8-3.7c-1.1-2.6-3.2-3.9-5.7-3.4-2.6 0.6-3.4 2.4-2.3 5.1s3.2 3.9 5.8 3.4c2.5-0.6 3.3-2.4 2.2-5.1"/>
	<path d="m211.3 103.8c-1.2 2.1-3.6 3.6-6.8 4.3-5.6 1.2-10.2-0.1-12.5-5.7l-3-7.2-3.8 0.8-2.5-6.1c3.5-1.1 4.4-2.1 3-6.6l7.4-1.6 2.2 5.4 6.8-1.4 2.6 6.2-6.8 1.4 2.3 5.6c0.6 1.5 1.9 1.8 3.4 1.5 1-0.2 1.6-0.7 2.1-1.3l5.6 4.7z"/>
	<path d="m214.7 100.7c-1.1-2.8 0.5-5.2 3.5-5.9 3-0.6 6.1 0.9 7.2 3.6s-0.3 5.2-3.2 5.9c-3.1 0.7-6.4-0.8-7.5-3.6m-5.6-15.8-4.3-10.2 8.7-1.9 4.3 10.2 3.1 9.3-7.4 1.6-4.4-9z"/>
	<path class="st0" d="m117.2 37.2c-0.9-1.1-1.1-2.8-0.3-4.1l13.4-21.1c1-1.6 3.2-2.1 4.8-1.1s2.1 3.2 1.1 4.8l-13.3 21.2c-1 1.6-3.2 2.1-4.8 1.1-0.4-0.2-0.6-0.5-0.9-0.8"/>
	<path class="st2" d="m100.9 22.9c-0.3-0.4-0.5-0.8-0.7-1.3l-4.1-15.5c-0.5-1.9 0.6-3.8 2.5-4.3s3.8 0.6 4.3 2.5l4.1 15.4c0.5 1.9-0.6 3.8-2.5 4.3-1.4 0.4-2.8-0.1-3.6-1.1"/>
	<path class="st3" d="m70.6 27.2c-1-1.2-1.1-3-0.1-4.3 1.1-1.6 3.3-1.9 4.9-0.7l20.2 14.8c1.6 1.1 1.9 3.3 0.7 4.9-1.1 1.6-3.3 1.9-4.9 0.7l-20.1-14.8c-0.3-0.2-0.5-0.4-0.7-0.6"/>

</svg>