<svg id="logo-et" width="34" height="33" viewBox="0 0 34 33" fill="none" xmlns="http://www.w3.org/2000/svg">
                        <path d="M17.0102 32.8586C26.0247 32.8586 33.3324 25.5488 33.3324 16.5317C33.3324 7.51464 26.0247 0.204834 17.0102 0.204834C7.99569 0.204834 0.687988 7.51464 0.687988 16.5317C0.687988 25.5488 7.99569 32.8586 17.0102 32.8586Z" fill="#E72787"></path>
                        <path d="M10.9521 24.0899C10.5922 23.2014 10.5196 22.3623 10.7344 21.5696C10.9492 20.7769 11.3353 20.0104 11.8868 19.2671C12.4732 18.5528 13.1843 17.9053 14.0232 17.3275L11.7823 15.8495C11.1611 15.4459 10.6241 15.0162 10.1742 14.5661C9.72135 14.1132 9.36431 13.5615 9.10015 12.914C8.80117 12.1794 8.73441 11.4332 8.89116 10.6724C9.05081 9.91169 9.45139 9.19159 10.1016 8.50925C10.7489 7.82981 11.6285 7.26361 12.7373 6.81355C13.643 6.44479 14.627 6.3751 15.6923 6.59868C16.148 6.6916 16.5835 6.83387 16.9986 7.02261C17.1089 6.46221 17.2656 5.98893 17.4688 5.60856C17.6865 5.26303 17.8084 5.07139 17.8346 5.04236L18.4732 4.78394L20.447 9.65036L19.4224 10.0656C18.8883 9.38904 18.2729 8.77348 17.5704 8.22179C16.8912 7.72238 16.2148 7.36523 15.5414 7.15327C14.8679 6.9384 14.1887 6.97034 13.5065 7.24909C12.9782 7.46395 12.6096 7.85594 12.4035 8.42795C12.1974 8.99705 12.238 9.63294 12.5225 10.3327C12.7518 10.896 13.1321 11.3983 13.6691 11.8368C14.2061 12.2752 14.8186 12.7137 15.5123 13.1463L22.6676 17.6991C22.7025 17.3478 22.7199 16.9732 22.7199 16.5754C22.7083 15.6637 22.5399 14.81 22.2148 14.0058L19.8549 14.0696L19.6981 13.6864L24.4354 11.7642L24.5922 12.1474L22.8563 13.7473C23.2017 14.601 23.3875 15.5998 23.4137 16.7409C23.402 17.3013 23.3875 17.7775 23.3643 18.1637L27.9187 21.0876L29.3556 20.9511L29.5123 21.3344L25.9274 22.7891C25.2279 23.0737 24.5806 23.2072 23.9884 23.1898C23.3962 23.1724 22.8883 23.0098 22.4644 22.7049C22.3135 23.1637 22.1103 23.5731 21.8607 23.936C21.2627 24.8158 20.4528 25.4633 19.4282 25.8785C14.9898 27.6788 12.1655 27.0864 10.955 24.0986L10.9521 24.0899ZM21.3875 23.4308C21.6197 23.0185 21.7794 22.6556 21.8694 22.342L14.6125 17.6817C14.4993 17.9866 14.4441 18.3466 14.4528 18.7589C14.4238 19.6678 14.7054 20.8553 15.3004 22.3216C15.7997 23.5499 16.4528 24.389 17.2598 24.8362C18.0668 25.2833 18.8708 25.3443 19.6749 25.0191C20.3745 24.7345 20.9434 24.2061 21.3846 23.4308H21.3875Z" fill="white"></path>
                    </svg>