<svg height="172" fill="none" xmlns="http://www.w3.org/2000/svg" viewBox="0 0 55 42" width="73">
<path d="M77.6307 17.5C77.4354 16.9022 77.1779 16.3666 76.8583 15.8931C76.5446 15.4137 76.1688 15.0053 75.7308 14.668C75.2988 14.3306 74.8075 14.0732 74.2571 13.8956C73.7067 13.718 73.103 13.6293 72.446 13.6293C71.3688 13.6293 70.3893 13.9074 69.5075 14.4638C68.6256 15.0201 67.9242 15.8398 67.4034 16.9229C66.8826 18.006 66.6222 19.3348 66.6222 20.9091C66.6222 22.4834 66.8855 23.8121 67.4123 24.8952C67.939 25.9783 68.6522 26.7981 69.5518 27.3544C70.4515 27.9107 71.4635 28.1889 72.5881 28.1889C73.6297 28.1889 74.5471 27.967 75.3402 27.5231C76.1392 27.0733 76.7607 26.44 77.2045 25.6232C77.6544 24.8005 77.8793 23.8329 77.8793 22.7202L78.554 22.8622H73.0852V20.9091H80.0099V22.8622C80.0099 24.3596 79.6903 25.6617 79.0511 26.7685C78.4179 27.8752 77.5419 28.7334 76.4233 29.343C75.3106 29.9467 74.0322 30.2486 72.5881 30.2486C70.9782 30.2486 69.5637 29.8698 68.3445 29.1122C67.1312 28.3546 66.1842 27.2775 65.5036 25.8807C64.8288 24.4839 64.4915 22.8267 64.4915 20.9091C64.4915 19.4709 64.6838 18.1777 65.0685 17.0295C65.4592 15.8754 66.0096 14.8929 66.7198 14.082C67.43 13.2712 68.2705 12.6497 69.2411 12.2177C70.2118 11.7856 71.2801 11.5696 72.446 11.5696C73.4048 11.5696 74.2985 11.7146 75.1271 12.0046C75.9616 12.2887 76.7044 12.6941 77.3555 13.2209C78.0124 13.7417 78.5599 14.3661 78.9979 15.0941C79.4358 15.8162 79.7377 16.6181 79.9034 17.5H77.6307ZM83.4967 30V16.3636H85.5209V18.4233H85.6629C85.9115 17.7486 86.3613 17.2011 87.0123 16.7809C87.6634 16.3607 88.3973 16.1506 89.214 16.1506C89.3679 16.1506 89.5603 16.1535 89.7911 16.1594C90.0219 16.1654 90.1965 16.1742 90.3149 16.1861V18.3168C90.2439 18.299 90.0811 18.2724 89.8266 18.2369C89.578 18.1954 89.3147 18.1747 89.0365 18.1747C88.3736 18.1747 87.7818 18.3138 87.2609 18.592C86.746 18.8642 86.3376 19.243 86.0358 19.7283C85.7398 20.2077 85.5919 20.7552 85.5919 21.3707V30H83.4967ZM98.1008 30.2841C96.7868 30.2841 95.6534 29.9941 94.7006 29.4141C93.7536 28.8281 93.0226 28.0114 92.5077 26.9638C91.9987 25.9103 91.7442 24.6851 91.7442 23.2884C91.7442 21.8916 91.9987 20.6605 92.5077 19.5952C93.0226 18.5239 93.7388 17.6894 94.6562 17.0916C95.5795 16.4879 96.6566 16.1861 97.8877 16.1861C98.5979 16.1861 99.2993 16.3045 99.9917 16.5412C100.684 16.7779 101.315 17.1626 101.883 17.6953C102.451 18.2221 102.904 18.9205 103.241 19.7905C103.578 20.6605 103.747 21.7318 103.747 23.0043V23.892H93.2357V22.081H101.616C101.616 21.3116 101.463 20.625 101.155 20.0213C100.853 19.4176 100.421 18.9412 99.8586 18.592C99.3022 18.2428 98.6453 18.0682 97.8877 18.0682C97.0532 18.0682 96.3311 18.2753 95.7215 18.6896C95.1178 19.098 94.6532 19.6307 94.3277 20.2876C94.0022 20.9446 93.8394 21.6489 93.8394 22.4006V23.608C93.8394 24.6378 94.017 25.5108 94.3721 26.2269C94.7331 26.9371 95.2332 27.4787 95.8724 27.8516C96.5116 28.2185 97.2544 28.402 98.1008 28.402C98.6512 28.402 99.1483 28.325 99.5922 28.1712C100.042 28.0114 100.43 27.7746 100.755 27.4609C101.081 27.1413 101.332 26.7448 101.51 26.2713L103.534 26.8395C103.321 27.526 102.963 28.1297 102.46 28.6506C101.957 29.1655 101.335 29.5679 100.595 29.858C99.8556 30.142 99.0241 30.2841 98.1008 30.2841ZM112.652 30.2841C111.338 30.2841 110.204 29.9941 109.251 29.4141C108.304 28.8281 107.573 28.0114 107.059 26.9638C106.55 25.9103 106.295 24.6851 106.295 23.2884C106.295 21.8916 106.55 20.6605 107.059 19.5952C107.573 18.5239 108.29 17.6894 109.207 17.0916C110.13 16.4879 111.207 16.1861 112.438 16.1861C113.149 16.1861 113.85 16.3045 114.543 16.5412C115.235 16.7779 115.865 17.1626 116.434 17.6953C117.002 18.2221 117.454 18.9205 117.792 19.7905C118.129 20.6605 118.298 21.7318 118.298 23.0043V23.892H107.786V22.081H116.167C116.167 21.3116 116.013 20.625 115.706 20.0213C115.404 19.4176 114.972 18.9412 114.409 18.592C113.853 18.2428 113.196 18.0682 112.438 18.0682C111.604 18.0682 110.882 18.2753 110.272 18.6896C109.669 19.098 109.204 19.6307 108.878 20.2876C108.553 20.9446 108.39 21.6489 108.39 22.4006V23.608C108.39 24.6378 108.568 25.5108 108.923 26.2269C109.284 26.9371 109.784 27.4787 110.423 27.8516C111.062 28.2185 111.805 28.402 112.652 28.402C113.202 28.402 113.699 28.325 114.143 28.1712C114.593 28.0114 114.98 27.7746 115.306 27.4609C115.632 27.1413 115.883 26.7448 116.061 26.2713L118.085 26.8395C117.872 27.526 117.514 28.1297 117.011 28.6506C116.507 29.1655 115.886 29.5679 115.146 29.858C114.406 30.142 113.575 30.2841 112.652 30.2841ZM123.58 21.7969V30H121.485V16.3636H123.509V18.4943H123.687C124.006 17.8018 124.492 17.2455 125.143 16.8253C125.794 16.3991 126.634 16.1861 127.664 16.1861C128.587 16.1861 129.395 16.3755 130.088 16.7543C130.78 17.1271 131.319 17.6953 131.703 18.4588C132.088 19.2164 132.28 20.1752 132.28 21.3352V30H130.185V21.4773C130.185 20.406 129.907 19.5715 129.351 18.9737C128.794 18.37 128.031 18.0682 127.06 18.0682C126.391 18.0682 125.794 18.2132 125.267 18.5032C124.746 18.7932 124.335 19.2164 124.033 19.7727C123.731 20.3291 123.58 21.0038 123.58 21.7969ZM141.826 30.2841C140.512 30.2841 139.379 29.9941 138.426 29.4141C137.479 28.8281 136.748 28.0114 136.233 26.9638C135.724 25.9103 135.47 24.6851 135.47 23.2884C135.47 21.8916 135.724 20.6605 136.233 19.5952C136.748 18.5239 137.464 17.6894 138.382 17.0916C139.305 16.4879 140.382 16.1861 141.613 16.1861C142.324 16.1861 143.025 16.3045 143.717 16.5412C144.41 16.7779 145.04 17.1626 145.608 17.6953C146.176 18.2221 146.629 18.9205 146.967 19.7905C147.304 20.6605 147.473 21.7318 147.473 23.0043V23.892H136.961V22.081H145.342C145.342 21.3116 145.188 20.625 144.88 20.0213C144.578 19.4176 144.146 18.9412 143.584 18.592C143.028 18.2428 142.371 18.0682 141.613 18.0682C140.779 18.0682 140.057 18.2753 139.447 18.6896C138.843 19.098 138.379 19.6307 138.053 20.2876C137.728 20.9446 137.565 21.6489 137.565 22.4006V23.608C137.565 24.6378 137.743 25.5108 138.098 26.2269C138.459 26.9371 138.959 27.4787 139.598 27.8516C140.237 28.2185 140.98 28.402 141.826 28.402C142.377 28.402 142.874 28.325 143.318 28.1712C143.768 28.0114 144.155 27.7746 144.481 27.4609C144.806 27.1413 145.058 26.7448 145.235 26.2713L147.26 26.8395C147.047 27.526 146.688 28.1297 146.185 28.6506C145.682 29.1655 145.061 29.5679 144.321 29.858C143.581 30.142 142.75 30.2841 141.826 30.2841ZM150.66 30V16.3636H152.684V18.4233H152.826C153.075 17.7486 153.524 17.2011 154.175 16.7809C154.826 16.3607 155.56 16.1506 156.377 16.1506C156.531 16.1506 156.723 16.1535 156.954 16.1594C157.185 16.1654 157.36 16.1742 157.478 16.1861V18.3168C157.407 18.299 157.244 18.2724 156.99 18.2369C156.741 18.1954 156.478 18.1747 156.2 18.1747C155.537 18.1747 154.945 18.3138 154.424 18.592C153.909 18.8642 153.501 19.243 153.199 19.7283C152.903 20.2077 152.755 20.7552 152.755 21.3707V30H150.66ZM169.372 30V31.9531H158.008V30H169.372Z" fill="#FFFFFF"/>
<path d="M42.0939 37.2479C40.9382 37.2939 39.8426 37.1564 38.8071 36.8354C37.7708 36.5153 36.8164 36.0419 35.944 35.4152L34.2782 37.1868C34.0602 37.4228 33.7758 37.5478 33.4249 37.5618C33.0741 37.5757 32.7807 37.4737 32.5446 37.2557C32.3086 37.0378 32.1836 36.7534 32.1696 36.4025C32.1557 36.0517 32.2577 35.7582 32.4756 35.5222L34.1105 33.7519C33.4164 32.932 32.8685 32.0133 32.4667 30.9958C32.0641 29.9783 31.8398 28.8917 31.7938 27.736C31.6838 24.9706 32.5502 22.59 34.3931 20.5944C36.2361 18.5987 38.5402 17.5459 41.3057 17.4358L51.2117 17.0417L51.6058 26.9477C51.7159 29.7131 50.8494 32.0937 49.0065 34.0893C47.1635 36.085 44.8594 37.1378 42.0939 37.2479ZM41.9954 34.7714C44.0592 34.6893 45.7846 33.8971 47.1718 32.395C48.5589 30.8929 49.2114 29.11 49.1293 27.0463L48.8337 19.6167L41.4042 19.9123C39.3405 19.9945 37.615 20.7866 36.2279 22.2887C34.8407 23.7908 34.1882 25.5737 34.2703 27.6375C34.3023 28.4423 34.4567 29.2063 34.7336 29.9295C35.0103 30.6519 35.3773 31.3037 35.8345 31.885L41.9875 25.222C42.2055 24.986 42.4899 24.861 42.8408 24.847C43.1916 24.8331 43.485 24.9351 43.7211 25.1531C43.9786 25.3909 44.1141 25.6798 44.1276 26.0199C44.1412 26.3609 44.0291 26.6601 43.7913 26.9176L37.6383 33.5805C38.254 33.9901 38.9327 34.2987 39.6744 34.5065C40.4169 34.7151 41.1905 34.8034 41.9954 34.7714Z" fill="#3C9E7A"/>
<path d="M41.9954 34.7714C44.0592 34.6893 45.7846 33.8971 47.1718 32.395C48.5589 30.8929 49.2114 29.11 49.1293 27.0463L48.8337 19.6167L41.4042 19.9123C39.3405 19.9945 37.615 20.7866 36.2279 22.2887C34.8407 23.7908 34.1882 25.5737 34.2703 27.6375C34.3023 28.4423 34.4567 29.2063 34.7336 29.9295C35.0103 30.6519 35.3773 31.3037 35.8345 31.885L41.9875 25.222C42.2055 24.986 42.4899 24.861 42.8408 24.847C43.1916 24.8331 43.485 24.9351 43.7211 25.1531C43.9786 25.3909 44.1141 25.6798 44.1276 26.0199C44.1412 26.3609 44.0291 26.6601 43.7913 26.9176L37.6383 33.5805C38.254 33.9901 38.9327 34.2987 39.6744 34.5065C40.4169 34.7151 41.1905 34.8034 41.9954 34.7714Z" fill="#6AB599"/>
<path d="M39.7182 14.8766C36.8694 7.0139 29.2649 2 21.144 2C10.5711 2 2 10.5711 2 21.144C2 31.7169 10.5711 40.288 21.144 40.288C26.6189 40.288 31.557 37.9898 35.0462 34.3054" stroke="#3C9E7A" stroke-width="3.41857" stroke-linecap="round" stroke-linejoin="round"/>
<path d="M16.7879 27.0088C16.5632 27.009 16.3461 26.9277 16.1772 26.78L10.5213 21.8523C10.4218 21.7655 10.3421 21.6587 10.2875 21.5388C10.2328 21.4189 10.2046 21.2887 10.2046 21.1571C10.2046 21.0255 10.2328 20.8953 10.2875 20.7754C10.3421 20.6555 10.4218 20.5487 10.5213 20.4619L16.1772 15.5342C16.3624 15.3728 16.6045 15.2913 16.85 15.3076C17.0956 15.3239 17.3246 15.4367 17.4867 15.6211C17.6488 15.8055 17.7306 16.0465 17.7143 16.291C17.6979 16.5356 17.5847 16.7636 17.3994 16.925L12.5411 21.1571L17.399 25.3892C17.5412 25.513 17.642 25.677 17.6881 25.8594C17.7342 26.0417 17.7233 26.2338 17.6569 26.4098C17.5905 26.5858 17.4717 26.7375 17.3164 26.8445C17.1611 26.9515 16.9767 27.0088 16.7879 27.0088ZM25.2718 27.0088C25.0829 27.0089 24.8985 26.9517 24.7431 26.8447C24.5878 26.7377 24.4689 26.586 24.4024 26.41C24.336 26.2339 24.325 26.0419 24.3711 25.8595C24.4172 25.6771 24.518 25.513 24.6603 25.3892L29.5186 21.1571L24.6607 16.925C24.4755 16.7636 24.3622 16.5356 24.3459 16.291C24.3295 16.0465 24.4113 15.8055 24.5734 15.6211C24.7355 15.4367 24.9645 15.3239 25.2101 15.3076C25.4557 15.2913 25.6977 15.3728 25.8829 15.5342L31.5389 20.4619C31.6383 20.5487 31.718 20.6555 31.7727 20.7754C31.8273 20.8953 31.8555 21.0255 31.8555 21.1571C31.8555 21.2887 31.8273 21.4189 31.7727 21.5388C31.718 21.6587 31.6383 21.7655 31.5389 21.8523L25.8829 26.78C25.714 26.9278 25.4967 27.0092 25.2718 27.0088ZM18.9089 29.1207C18.7644 29.1206 18.6219 29.087 18.4927 29.0224C18.3636 28.9579 18.2514 28.8642 18.165 28.7488C18.0787 28.6334 18.0206 28.4996 17.9954 28.3579C17.9702 28.2162 17.9785 28.0706 18.0198 27.9327L20.1408 20.8931L22.2618 13.8535C22.2937 13.734 22.3494 13.6222 22.4256 13.5245C22.5018 13.4269 22.5968 13.3454 22.7052 13.2851C22.8135 13.2247 22.933 13.1865 23.0564 13.1729C23.1798 13.1593 23.3047 13.1705 23.4237 13.2059C23.5427 13.2412 23.6533 13.3 23.7491 13.3787C23.8449 13.4574 23.9238 13.5544 23.9812 13.664C24.0386 13.7737 24.0734 13.8936 24.0834 14.0169C24.0934 14.1401 24.0784 14.2641 24.0394 14.3815L19.7975 28.4607C19.7404 28.6513 19.6231 28.8184 19.463 28.9373C19.3029 29.0562 19.1086 29.1205 18.9089 29.1207Z" fill="#6AB599"/>
</svg>
