<svg xmlns="http://www.w3.org/2000/svg" xmlns:xlink="http://www.w3.org/1999/xlink" class="icon icon-tabler icon-tabler-brand-behance" viewBox="0,0,256,256" width="24px" height="24px"  stroke-width="2" stroke-linecap="round" stroke-linejoin="round"  ><g  fill="#F2ECDED3"  stroke="none" style="mix-blend-mode: normal; "><g transform="scale(5.33333,5.33333)"><path d="M5.5,10c-1.91495,0 -3.5,1.58504 -3.5,3.5v9v12c0,1.91495 1.58505,3.5 3.5,3.5h11c4.67666,0 8.5,-3.82334 8.5,-8.5c0,-2.9565 -1.62014,-5.4447 -3.92578,-6.96875c1.72729,-1.2782 2.92578,-3.23132 2.92578,-5.53125c0,-3.8484 -3.1516,-7 -7,-7zM33.51172,12c-0.828,0 -1.5,0.672 -1.5,1.5c0,0.828 0.672,1.5 1.5,1.5h8c0.829,0 1.5,-0.672 1.5,-1.5c0,-0.828 -0.672,-1.5 -1.5,-1.5zM5.5,13h11.5c2.2276,0 4,1.7724 4,4c0,2.2276 -1.7724,4 -4,4h-0.5h-11.5v-7.5c0,-0.29504 0.20495,-0.5 0.5,-0.5zM36.99609,17c-5.33673,0 -9.54873,4.43272 -9.87695,9.86719c-0.18789,0.40232 -0.18789,0.86721 0,1.26953c0.33013,5.43282 4.5423,9.86328 9.87695,9.86328c3.4845,0 6.9261,-1.77345 8.77148,-4.69531c0.2993,-0.4531 0.33037,-1.03257 0.08124,-1.51507c-0.24913,-0.4825 -0.73956,-0.79271 -1.28228,-0.81105c-0.54271,-0.01835 -1.05297,0.25803 -1.33412,0.72261c-1.20261,1.90414 -3.82682,3.29883 -6.23633,3.29883c-3.34727,0 -6.04884,-2.56624 -6.7168,-6h14.20508c1.47191,0 2.66262,-1.31785 2.49023,-2.79102v-0.00195c-0.60299,-5.1551 -4.84839,-9.20703 -9.97852,-9.20703zM36.99609,20c3.35522,0 6.16327,2.5653 6.83203,6h-13.54883c0.66775,-3.43385 3.3685,-6 6.7168,-6zM5,24h11.5c3.05534,0 5.5,2.44466 5.5,5.5c0,3.05534 -2.44466,5.5 -5.5,5.5h-11c-0.29505,0 -0.5,-0.20495 -0.5,-0.5z"></path></g></g></svg>